<?xml version="1.0" encoding="utf-8"?>
<!-- Generator: Adobe Illustrator 25.2.1, SVG Export Plug-In . SVG Version: 6.00 Build 0)  -->
<svg version="1.1" id="图层_1" xmlns="http://www.w3.org/2000/svg" xmlns:xlink="http://www.w3.org/1999/xlink" x="0px" y="0px"
	 viewBox="0 0 100 100" style="enable-background:new 0 0 100 100;" xml:space="preserve">
<style type="text/css">
	.st0{fill:#FFFFFF;}
</style>
<path class="st0" d="M50.2,7.7C25,7.7,4.5,28.2,4.5,53.2c0,11.7,4.5,22.4,11.7,30.6c3.9-2.6,8-5.2,11.9-7.8c0.9,0,1.9,0,2.8,0
	c0.7,8.2,4.7,12.5,14.9,13.4c0.6,1.9,2.2,3,4.1,3s3.5-1.3,4.1-3c10.3-0.9,14.2-5.2,14.9-13.4c0.9,0,1.9,0,2.8,0
	c3.9,2.6,8,5.2,11.9,7.8c7.3-8,11.7-18.8,11.7-30.6C95.7,28,75.4,7.7,50.2,7.7z M69.2,67.9h-0.4c-0.9-5.4-3-11.2-3.5-14.5
	c-0.2-0.6-0.2-0.9-0.2-1.5c0.4,0.4,0.6,0.6,0.7,0.6c0.9,0.4,1.7,0.9,2.6-0.4c0,0,0,0,0-0.2l0,0c-0.6-0.9-1.7-2.6-2.6-3.5
	c-0.4-0.2-1.5-0.6-1.5-0.6l0,0c-2.2-7.1-7.1-10.8-13.6-11.2c-0.4-1.3-1.3-2.4-2.6-2.8c-0.2-0.2-0.4-0.2-0.6-0.2l0.2,0.2h-0.2
	c0.7,0.7,1.1,1.9,1.3,3c-6.2,0.4-11,4.1-13.1,11c-0.2,0-1.3,0.4-1.5,0.6c-1.1,0.9-2.1,2.6-2.6,3.5l0,0c0,0,0,0,0,0.2
	c0.9,1.3,1.9,0.7,2.6,0.4c0.2-0.2,0.6-0.4,0.7-0.6c-0.2,0.6-0.2,0.9-0.2,1.3c-0.4,3.5-2.4,9.3-3.5,14.5H31c0,0-2.4-6-2.4-16
	s2.4-16,2.4-16s3-1.9,11.4-2.6l-7.5-12.7c-0.2-0.4-0.2-0.9,0.4-1.1c0.4-0.2,0.9-0.2,1.1,0.4l8,13.3c1.7-0.2,3.5-0.2,5.6-0.2
	c2.8,0,5.4,0.2,7.5,0.4l10.8-16.4c0.2-0.4,0.7-0.6,1.1-0.2c0.4,0.2,0.6,0.7,0.2,1.1L59.1,33.6c7.1,0.7,10.1,2.4,10.1,2.4
	s2.2,5.8,2.2,16C71.4,59.7,69.2,67.9,69.2,67.9z"/>
</svg>
